<?xml version="1.0" encoding="UTF-8" standalone="no"?> <!-- Created with Vectornator for iOS (http://vectornator.io/) --><!DOCTYPE svg PUBLIC "-//W3C//DTD SVG 1.1//EN" "http://www.w3.org/Graphics/SVG/1.1/DTD/svg11.dtd">
<svg version="1.1" width="100%" viewBox="0 0 540 250" style="fill-rule:nonzero;clip-rule:evenodd;stroke-linecap:round;stroke-linejoin:round;" height="100%" xmlns:vectornator="http://vectornator.io" xmlns="http://www.w3.org/2000/svg" xmlns:xlink="http://www.w3.org/1999/xlink" xml:space="preserve">
<metadata>
<vectornator:setting value="false" key="VNPencilOnly"/>
<vectornator:setting value="false" key="WDSnapToGrid"/>
<vectornator:setting value="false" key="WDOutlineMode"/>
<vectornator:setting key="VNDimensionsVisible" value="true"/>
<vectornator:setting key="WDDynamicGuides" value="false"/>
<vectornator:setting value="false" key="WDDisplayWhiteBackground"/>
<vectornator:setting key="WDCMYKEnabledKey" value="false"/>
<vectornator:setting key="WDSnapToPoints" value="false"/>
<vectornator:setting key="VNSnapToGuides" value="true"/>
<vectornator:setting value="true" key="WDRulersVisible"/>
<vectornator:setting key="WDUnits" value="Points"/>
<vectornator:setting key="WDIsolateActiveLayer" value="false"/>
<vectornator:setting key="UndoHistoryDisabled" value="false"/>
<vectornator:setting key="IsTimeLapseWatermarkDisabled" value="false"/>
<vectornator:setting value="true" key="WDGuidesVisible"/>
<vectornator:setting value="false" key="WDSnapToEdges"/>
</metadata>
<defs/>
<g vectornator:layerName="Untitled" id="Untitled">
<g opacity="1">
<path d="M129.549+95.3045L103.98+95.3045L103.98+160.431L115.716+160.431L115.716+137.116L129.471+137.116C144.471+137.116+152.476+128.645+152.476+116.133C152.476+103.698+144.471+95.3045+129.549+95.3045ZM129.083+126.702L115.716+126.702L115.716+105.719L129.005+105.719C136.932+105.719+140.507+110.071+140.507+116.288C140.585+122.505+136.932+126.702+129.083+126.702Z" stroke-width="1" stroke-linejoin="round" stroke="#40fddc" fill-opacity="0" fill="#40fddc" stroke-linecap="round" opacity="1"/>
<path stroke="#40fddc" stroke-linejoin="round" stroke-linecap="round" fill="#40fddc" stroke-width="1" opacity="1" fill-opacity="0" d="M171.361+95.3045L183.407+95.3045L183.407+95.3045L183.407+160.431L183.407+160.431L171.361+160.431L171.361+160.431L171.361+95.3045L171.361+95.3045Z"/>
<path d="M232.368+149.24L202.137+149.24L202.137+160.431L244.181+160.431L244.181+95.3045L232.368+95.3045L232.368+149.24Z" opacity="1" fill-opacity="0" stroke-linecap="round" stroke-width="1" stroke="#40fddc" fill="#40fddc" stroke-linejoin="round"/>
<path fill="#40fddc" stroke-width="1" d="M276.9+95.3045L265.009+95.3045L265.009+160.431L307.132+160.431L307.132+149.24L276.9+149.24L276.9+95.3045Z" stroke="#40fddc" fill-opacity="0" stroke-linejoin="round" stroke-linecap="round" opacity="1"/>
<path stroke-width="1" d="M345.524+95.3045L322.675+160.431L334.644+160.431L338.84+147.919L364.72+147.919L368.917+160.431L381.351+160.431L358.503+95.3045C358.503+95.3045+345.524+95.3045+345.524+95.3045ZM342.493+137.271L351.741+109.837L361.067+137.271L342.493+137.271Z" opacity="1" stroke="#40fddc" stroke-linecap="round" fill-opacity="0" stroke-linejoin="round" fill="#40fddc"/>
<path fill="#40fddc" stroke="#40fddc" fill-opacity="0" opacity="1" stroke-width="1" stroke-linecap="round" stroke-linejoin="round" d="M447.333+115.511C447.333+105.019+440.261+95.3045+424.717+95.3045L397.283+95.3045L397.283+160.431L409.252+160.431L409.252+135.795L423.707+135.795L434.51+160.431L447.411+160.431L435.442+133.774C442.514+131.132+447.333+124.215+447.333+115.511ZM424.873+125.148L409.096+125.148L409.096+105.719L424.717+105.719C431.401+105.719+435.442+110.304+435.442+115.511C435.442+121.65+431.634+125.148+424.873+125.148Z"/>
</g>
</g>
</svg>
