<?xml version="1.0" encoding="UTF-8" standalone="no"?> <!-- Created with Vectornator for iOS (http://vectornator.io/) --><!DOCTYPE svg PUBLIC "-//W3C//DTD SVG 1.1//EN" "http://www.w3.org/Graphics/SVG/1.1/DTD/svg11.dtd">
<svg xml:space="preserve" height="100%" style="fill-rule:nonzero;clip-rule:evenodd;stroke-linecap:round;stroke-linejoin:round;" version="1.1" viewBox="0 0 540 250" xmlns:vectornator="http://vectornator.io" xmlns="http://www.w3.org/2000/svg" width="100%" xmlns:xlink="http://www.w3.org/1999/xlink">
<metadata>
<vectornator:setting key="VNPencilOnly" value="false"/>
<vectornator:setting key="WDSnapToGrid" value="false"/>
<vectornator:setting value="false" key="WDOutlineMode"/>
<vectornator:setting key="VNDimensionsVisible" value="true"/>
<vectornator:setting value="false" key="WDDynamicGuides"/>
<vectornator:setting key="WDDisplayWhiteBackground" value="false"/>
<vectornator:setting value="false" key="WDCMYKEnabledKey"/>
<vectornator:setting key="WDSnapToPoints" value="false"/>
<vectornator:setting key="VNSnapToGuides" value="true"/>
<vectornator:setting key="WDRulersVisible" value="true"/>
<vectornator:setting key="WDUnits" value="Points"/>
<vectornator:setting value="false" key="WDIsolateActiveLayer"/>
<vectornator:setting key="UndoHistoryDisabled" value="false"/>
<vectornator:setting key="IsTimeLapseWatermarkDisabled" value="false"/>
<vectornator:setting value="true" key="WDGuidesVisible"/>
<vectornator:setting key="WDSnapToEdges" value="false"/>
</metadata>
<defs/>
<g id="Untitled" vectornator:layerName="Untitled">
<g opacity="1">
<path stroke-linejoin="round" d="M155.489+110.027L155.489+100.392L200.881+100.392L200.881+110.027L183.961+110.027L183.961+155.662L172.41+155.662L172.41+110.027L155.489+110.027Z" fill-opacity="0" fill="#40fddc" stroke="#40fddc" stroke-width="1" opacity="1" stroke-linecap="round"/>
<path fill="#40fddc" stroke="#40fddc" stroke-width="1" fill-opacity="0" stroke-linecap="round" d="M215.956+155.832L215.956+100.563L253.199+100.563L253.199+110.197L227.642+110.197L227.642+123.367L251.283+123.367L251.283+133.001L227.642+133.001L227.642+146.198L253.307+146.198L253.307+155.832L215.956+155.832Z" opacity="1" stroke-linejoin="round"/>
<path stroke="#40fddc" opacity="1" fill="#40fddc" stroke-linecap="round" fill-opacity="0" d="M270.089+100.733L284.5+100.733L299.72+137.867L300.368+137.867L315.589+100.733L330+100.733L330+156.002L318.665+156.002L318.665+120.029L318.207+120.029L303.904+155.733L296.185+155.733L281.882+119.894L281.423+119.894L281.423+156.002L270.089+156.002L270.089+100.733Z" stroke-width="1" stroke-linejoin="round"/>
<path stroke-linejoin="round" fill="#40fddc" d="M347.895+156.002L347.895+100.733L369.701+100.733C373.893+100.733+377.464+101.533+380.415+103.135C383.365+104.718+385.614+106.922+387.162+109.746C388.727+112.553+389.509+115.792+389.509+119.462C389.509+123.132+388.718+126.37+387.135+129.177C385.551+131.966+383.257+134.152+380.253+135.735C377.266+137.3+373.65+138.083+369.404+138.083L359.581+138.083L359.581+156.002L347.895+156.002ZM359.394+128.653L367.328+128.653C370.674+128.653+373.166+127.798+374.803+126.089C376.459+124.362+377.286+122.131+377.286+119.396C377.286+116.643+376.459+114.43+374.803+112.757C373.166+111.066+370.656+110.22+367.274+110.22L359.394+110.22L359.394+128.653Z" fill-opacity="0" stroke-linecap="round" stroke="#40fddc" stroke-width="1" opacity="1"/>
<path fill="#40fddc" fill-opacity="0" stroke-linecap="round" stroke-linejoin="round" stroke="#40fddc" d="M455.302+128.302C455.302+134.329+454.16+139.456+451.875+143.684C449.608+147.912+446.522+151.142+442.618+153.373C438.714+155.586+434.315+156.692+429.421+156.692C424.51+156.692+420.102+155.577+416.198+153.346C412.293+151.115+409.208+147.885+406.941+143.657C404.674+139.411+403.541+134.293+403.541+128.302C403.541+122.275+404.674+117.147+406.941+112.919C409.208+108.691+412.293+105.471+416.198+103.258C420.102+101.027+424.51+99.9113+429.421+99.9113C434.315+99.9113+438.714+101.027+442.618+103.258C446.522+105.471+449.608+108.691+451.875+112.919C454.16+117.147+455.302+122.275+455.302+128.302ZM443.455+128.302C443.455+122.437+442.177+117.966+439.622+114.889C437.068+111.795+433.667+110.247+429.421+110.247C425.175+110.247+421.775+111.795+419.22+114.889C416.665+117.966+415.388+122.437+415.388+128.302C415.388+134.149+416.665+138.62+419.22+141.714C421.775+144.809+425.175+146.356+429.421+146.356C433.667+146.356+437.068+144.809+439.622+141.714C442.177+138.62+443.455+134.149+443.455+128.302Z" opacity="1" stroke-width="1"/>
<path d="M96.4894+155.857L96.4894+144.524C100.771+143.712+103.12+142.653+105.607+139.365C108.033+136.157+108.223+133.94+108.223+129.341L96.4894+129.341L96.4894+99.8571L125.489+99.8571L125.489+125.422C125.489+144.224+115.823+154.369+96.4894+155.857Z" stroke-linejoin="round" stroke="#40fddc" stroke-width="1" opacity="1" fill-opacity="0" fill="#40fddc" stroke-linecap="round"/>
</g>
</g>
</svg>
